<?xml version="1.0" encoding="UTF-8" standalone="no"?>
<svg width="66px" height="1500px" viewBox="0 0 66 1500" version="1.1" xmlns="http://www.w3.org/2000/svg" xmlns:xlink="http://www.w3.org/1999/xlink">
    <!-- Generator: Sketch 39.1 (31720) - http://www.bohemiancoding.com/sketch -->
    <title>30reasons-numbers</title>
    <desc>Created with Sketch.</desc>
    <defs></defs>
    <g id="Page-1" stroke="none" stroke-width="1" fill="none" fill-rule="evenodd">
        <g id="30reasons-numbers" stroke="#D80000" stroke-width="4">
            <path d="M3.956,34.28 C2.676,45.032 2.676,59.368 3.956,70.12 C5.748,85.48 16.756,98.408 32.5,98.408 C48.244,98.408 59.252,85.48 61.044,70.12 C62.324,59.368 62.324,45.032 61.044,34.28 C59.252,18.92 48.244,5.992 32.5,5.992 C16.756,5.992 5.748,18.92 3.956,34.28 L3.956,34.28 Z M32.5,23.4 C38.516,23.4 42.612,28.008 43.252,33.768 C44.532,44.904 44.532,59.496 43.252,70.632 C42.612,76.392 38.516,81 32.5,81 C26.484,81 22.388,76.392 21.748,70.632 C20.468,59.496 20.468,44.904 21.748,33.768 C22.388,28.008 26.484,23.4 32.5,23.4 L32.5,23.4 Z M26.612,228.44 C26.612,229.208 26.1,229.72 25.332,229.72 L7.412,229.72 C6.004,229.72 4.852,230.872 4.852,232.28 L4.852,244.44 C4.852,245.848 6.004,247 7.412,247 L59.892,247 C61.3,247 62.452,245.848 62.452,244.44 L62.452,232.28 C62.452,230.872 61.3,229.72 59.892,229.72 L45.684,229.72 C44.916,229.72 44.404,229.208 44.404,228.44 L44.404,159.96 C44.404,158.552 43.252,157.4 41.844,157.4 L27.636,157.4 C24.436,157.4 22.388,159.192 21.236,160.472 L6.388,176.472 C4.596,178.392 4.34,180.056 4.34,182.104 L4.34,194.392 C4.34,196.952 7.156,197.976 8.692,196.44 L24.18,181.976 C24.948,181.208 26.612,181.336 26.612,183 L26.612,228.44 Z M42.74,332.616 C42.74,335.304 40.564,339.4 39.156,340.936 L6.004,376.136 C5.492,376.648 4.852,377.416 4.852,379.336 L4.852,394.44 C4.852,395.848 6.004,397 7.412,397 L57.588,397 C58.996,397 60.148,395.848 60.148,394.44 L60.148,382.28 C60.148,380.872 58.996,379.72 57.588,379.72 L29.3,379.72 C27.124,379.72 27.252,377.928 28.02,377.16 L52.084,351.688 C56.82,346.568 60.02,339.784 60.02,332.744 C60.02,317.768 48.116,305.992 33.012,305.992 C18.036,305.992 5.748,317.768 5.748,332.744 L5.748,334.792 C5.748,336.2 6.9,337.352 8.308,337.352 L20.468,337.352 C21.876,337.352 23.028,336.2 23.028,334.792 L23.028,332.616 C23.028,326.984 27.124,323.272 33.524,323.272 C39.284,323.272 42.74,327.496 42.74,332.616 L42.74,332.616 Z M43.764,520.376 C43.764,527.032 39.284,531 32.628,531 C25.844,531 21.492,527.032 21.492,520.376 L21.492,519.096 C21.492,517.688 20.34,516.536 18.932,516.536 L6.644,516.536 C5.236,516.536 4.084,517.688 4.084,519.096 L4.084,520.376 C4.084,536.12 16.884,548.408 32.628,548.408 C48.372,548.408 61.172,536.12 61.172,520.376 C61.172,513.336 58.1,506.04 53.108,501.944 C52.34,501.304 52.34,500.408 53.108,499.64 C56.948,495.416 59.892,489.272 59.892,482.872 C59.892,467.896 47.732,455.992 32.628,455.992 C17.652,455.992 5.236,467.896 5.236,482.872 L5.236,484.792 C5.236,486.2 6.388,487.352 7.796,487.352 L20.084,487.352 C21.492,487.352 22.644,486.2 22.644,484.792 L22.644,482.872 C22.644,477.112 26.868,473.4 32.628,473.4 C38.516,473.4 42.612,477.112 42.612,482.872 C42.612,488.76 38.516,492.6 32.628,492.6 L31.092,492.6 C29.684,492.6 28.532,493.752 28.532,495.16 L28.532,507.192 C28.532,508.6 29.684,509.752 31.092,509.752 L32.628,509.752 C39.284,509.752 43.764,513.72 43.764,520.376 L43.764,520.376 Z M54.772,664.872 C54.004,664.872 53.492,664.36 53.492,663.592 L53.492,609.96 C53.492,608.552 52.34,607.4 50.932,607.4 L37.236,607.4 C35.828,607.4 35.316,607.784 34.548,609.192 L4.98,660.264 C3.956,661.928 2.932,663.336 2.932,665.128 L2.932,678.44 C2.932,679.848 4.084,681 5.492,681 L35.572,681 C36.34,681 36.852,681.512 36.852,682.28 L36.852,694.44 C36.852,695.848 38.004,697 39.412,697 L50.932,697 C52.34,697 53.492,695.848 53.492,694.44 L53.492,682.28 C53.492,681.512 54.004,681 54.772,681 L59.508,681 C60.916,681 62.068,679.848 62.068,678.44 L62.068,667.432 C62.068,666.024 60.916,664.872 59.508,664.872 L54.772,664.872 Z M35.444,636.072 C35.828,635.432 36.852,635.56 36.852,636.456 L36.852,663.592 C36.852,664.36 36.34,664.872 35.572,664.872 L21.492,664.872 C20.596,664.872 20.212,664.232 20.724,663.336 L35.444,636.072 Z M54.644,774.808 C56.052,774.808 57.204,773.656 57.204,772.248 L57.204,759.96 C57.204,758.552 56.052,757.4 54.644,757.4 L8.436,757.4 C7.028,757.4 5.876,758.552 5.876,759.96 L5.876,806.04 C5.876,807.448 7.028,808.6 8.436,808.6 L20.852,808.6 C22.388,808.6 23.284,808.088 23.924,807.192 C25.588,804.888 28.532,803.096 32.372,803.096 C40.436,803.096 43.636,810.136 43.636,817.304 C43.636,824.472 40.692,831 32.372,831 C26.868,831 21.236,828.696 21.236,822.936 C21.236,821.528 20.084,820.376 18.676,820.376 L6.644,820.376 C5.236,820.376 4.084,821.272 4.084,822.936 C4.084,840.216 17.396,848.408 32.372,848.408 C51.06,848.408 60.916,832.792 60.916,817.304 C60.916,799.512 49.908,786.968 33.268,786.968 C30.068,786.968 26.996,787.992 25.332,789.144 C24.18,789.912 22.9,789.656 22.9,787.992 L22.9,776.088 C22.9,775.32 23.412,774.808 24.18,774.808 L54.644,774.808 Z M33.14,954.12 C39.796,954.12 44.02,958.984 44.532,965.64 C44.66,967.56 44.66,968.84 44.532,970.632 C44.02,977.288 39.796,981.64 33.14,981.64 C26.484,981.64 22.26,977.288 21.748,970.632 C21.62,968.84 21.62,967.56 21.748,965.64 C22.26,958.984 26.484,954.12 33.14,954.12 L33.14,954.12 Z M60.276,930.952 C60.276,915.848 46.58,905.992 32.5,905.992 C17.396,905.992 6.388,918.408 4.596,933.768 C3.316,944.52 3.316,959.88 4.596,970.632 C6.388,985.992 17.396,998.408 33.14,998.408 C48.884,998.408 61.684,986.12 61.684,970.376 L61.684,965.896 C61.684,950.152 48.884,937.352 33.14,937.352 C29.3,937.352 25.46,938.504 23.796,939.4 C22.388,940.168 20.852,939.528 20.852,937.736 C20.852,928.776 24.564,922.76 32.5,922.76 C39.028,922.76 42.228,926.728 43.252,930.952 C43.636,932.488 44.788,933.512 46.836,933.512 L57.716,933.512 C59.124,933.512 60.276,932.36 60.276,930.952 L60.276,930.952 Z M11.38,1143.928 C10.868,1145.08 11.38,1147 13.684,1147 L27.38,1147 C28.532,1147 29.3,1146.232 29.812,1145.08 L58.996,1077.88 C59.508,1076.728 59.636,1076.088 59.636,1075.32 L59.636,1059.96 C59.636,1058.552 58.484,1057.4 57.076,1057.4 L7.924,1057.4 C6.516,1057.4 5.364,1058.552 5.364,1059.96 L5.364,1072.12 C5.364,1073.528 6.516,1074.68 7.924,1074.68 L40.564,1074.68 C41.332,1074.68 41.716,1075.32 41.46,1075.96 L11.38,1143.928 Z M32.5,1281.384 C25.076,1281.384 20.212,1276.904 20.212,1270.376 C20.212,1263.848 25.076,1258.856 32.5,1258.856 C39.924,1258.856 44.788,1263.848 44.788,1270.376 C44.788,1276.904 39.924,1281.384 32.5,1281.384 L32.5,1281.384 Z M32.5,1243.24 C26.228,1243.24 21.492,1238.632 21.492,1232.872 C21.492,1227.24 26.228,1223.016 32.5,1223.016 C38.9,1223.016 43.508,1227.24 43.508,1232.872 C43.508,1238.632 38.9,1243.24 32.5,1243.24 L32.5,1243.24 Z M32.5,1205.992 C16.884,1205.992 4.468,1217.896 4.468,1232.872 C4.468,1239.144 6.388,1244.776 9.972,1249.384 C10.868,1250.536 10.996,1251.176 10.1,1252.2 C5.876,1257.192 3.316,1263.336 3.316,1270.376 C3.316,1286.12 16.116,1298.408 32.5,1298.408 C48.884,1298.408 61.684,1286.12 61.684,1270.376 C61.684,1263.336 59.38,1256.808 54.772,1252.2 C53.748,1251.176 53.876,1250.408 54.772,1249.384 C58.484,1244.904 60.404,1239.144 60.404,1232.872 C60.404,1217.896 48.244,1205.992 32.5,1205.992 L32.5,1205.992 Z M31.988,1400.152 C26.1,1400.152 22.132,1395.544 21.492,1389.528 C21.236,1386.84 21.236,1385.304 21.492,1382.488 C22.004,1376.6 26.1,1372.376 31.988,1372.376 C37.876,1372.376 41.972,1376.6 42.484,1382.488 C42.74,1385.304 42.74,1386.84 42.484,1389.528 C41.844,1395.544 37.876,1400.152 31.988,1400.152 L31.988,1400.152 Z M3.572,1423.192 C3.572,1437.528 15.732,1448.408 31.732,1448.408 C47.476,1448.408 58.484,1435.992 60.276,1420.632 C61.556,1409.88 61.556,1394.52 60.276,1383.768 C58.484,1368.408 47.476,1355.992 31.348,1355.992 C16.244,1355.992 4.724,1367.896 3.956,1382.872 C3.828,1385.56 3.828,1386.84 3.956,1389.144 C4.852,1404.376 16.244,1416.536 31.22,1416.536 C35.06,1416.536 39.924,1415.256 41.716,1414.616 C43.124,1414.104 44.788,1414.488 44.788,1416.28 C44.788,1427.8 39.284,1431.64 31.348,1431.64 C24.436,1431.64 21.108,1427.672 20.084,1423.192 C19.7,1421.656 18.548,1420.632 16.5,1420.632 L6.132,1420.632 C4.724,1420.632 3.572,1421.784 3.572,1423.192 L3.572,1423.192 Z" id="0-1-2-3-4-5-6-7-8-9"></path>
        </g>
    </g>
</svg>