<?xml version="1.0" encoding="UTF-8" standalone="no"?>
<svg width="120px" height="25px" viewBox="0 0 120 25" version="1.1" xmlns="http://www.w3.org/2000/svg" xmlns:xlink="http://www.w3.org/1999/xlink">
    <!-- Generator: Sketch 39.1 (31720) - http://www.bohemiancoding.com/sketch -->
    <title>30reasons-logo-xsmall</title>
    <desc>Created with Sketch.</desc>
    <defs></defs>
    <g id="Page-1" stroke="none" stroke-width="1" fill="none" fill-rule="evenodd">
        <g id="30reasons-logo-xsmall">
            <g id="30-R" transform="translate(0.500000, 2.000000)">
                <path d="M8.4928,13.8752 C8.4928,15.2064 7.5968,16 6.2656,16 C4.9088,16 4.0384,15.2064 4.0384,13.8752 L4.0384,13.6192 C4.0384,13.3376 3.808,13.1072 3.5264,13.1072 L1.0688,13.1072 C0.7872,13.1072 0.5568,13.3376 0.5568,13.6192 L0.5568,13.8752 C0.5568,17.024 3.1168,19.4816 6.2656,19.4816 C9.4144,19.4816 11.9744,17.024 11.9744,13.8752 C11.9744,12.4672 11.36,11.008 10.3616,10.1888 C10.208,10.0608 10.208,9.8816 10.3616,9.728 C11.1296,8.8832 11.7184,7.6544 11.7184,6.3744 C11.7184,3.3792 9.2864,0.9984 6.2656,0.9984 C3.2704,0.9984 0.7872,3.3792 0.7872,6.3744 L0.7872,6.7584 C0.7872,7.04 1.0176,7.2704 1.2992,7.2704 L3.7568,7.2704 C4.0384,7.2704 4.2688,7.04 4.2688,6.7584 L4.2688,6.3744 C4.2688,5.2224 5.1136,4.48 6.2656,4.48 C7.4432,4.48 8.2624,5.2224 8.2624,6.3744 C8.2624,7.552 7.4432,8.32 6.2656,8.32 L5.9584,8.32 C5.6768,8.32 5.4464,8.5504 5.4464,8.832 L5.4464,11.2384 C5.4464,11.52 5.6768,11.7504 5.9584,11.7504 L6.2656,11.7504 C7.5968,11.7504 8.4928,12.544 8.4928,13.8752 L8.4928,13.8752 Z M13.8112,6.656 C13.5552,8.8064 13.5552,11.6736 13.8112,13.824 C14.1696,16.896 16.3712,19.4816 19.52,19.4816 C22.6688,19.4816 24.8704,16.896 25.2288,13.824 C25.4848,11.6736 25.4848,8.8064 25.2288,6.656 C24.8704,3.584 22.6688,0.9984 19.52,0.9984 C16.3712,0.9984 14.1696,3.584 13.8112,6.656 L13.8112,6.656 Z M19.52,4.48 C20.7232,4.48 21.5424,5.4016 21.6704,6.5536 C21.9264,8.7808 21.9264,11.6992 21.6704,13.9264 C21.5424,15.0784 20.7232,16 19.52,16 C18.3168,16 17.4976,15.0784 17.3696,13.9264 C17.1136,11.6992 17.1136,8.7808 17.3696,6.5536 C17.4976,5.4016 18.3168,4.48 19.52,4.48 L19.52,4.48 Z" id="30" stroke="#D80000" stroke-width="1.2"></path>
                <path d="M37.7552,10.88 C39.9056,10.1376 41.3392,8.4992 41.3392,5.7088 C41.3392,3.1744 39.9568,0.6656 35.3488,0.6656 L29,0.6656 L29,19.2 L31.3296,19.2 L31.3296,11.4944 L35.5024,11.4944 L39.752,19.2 L42.312,19.2 L37.7552,10.88 Z M31.3296,9.5232 L31.3296,2.6624 L34.5552,2.6624 C37.2176,2.6624 38.9072,3.328 38.9072,5.8368 C38.9072,8.704 37.2176,9.5232 34.7856,9.5232 L31.3296,9.5232 Z M48.9104,19.5072 C51.5472,19.5072 53.5952,18.2528 54.1328,15.6928 L52.0848,15.232 C51.7264,16.7168 50.856,17.5616 48.9872,17.5616 C46.888,17.5616 45.4032,16.512 45.3008,13.1584 L54.1584,13.1584 C54.2352,12.544 54.2608,11.9552 54.2608,11.4432 C54.2608,8.192 52.7248,5.76 49.0384,5.76 C45.6592,5.76 42.8432,7.8336 42.8432,12.6464 C42.8432,16.256 44.2512,19.5072 48.9104,19.5072 L48.9104,19.5072 Z M45.3264,11.3152 C45.4544,8.704 47.144,7.6544 48.8848,7.6544 C50.9584,7.6544 51.8544,8.96 51.8544,11.3152 L45.3264,11.3152 Z M66.056,10.2912 C66.056,7.0144 64.5968,5.76 61.3456,5.76 C58.2992,5.76 56.712,6.912 56.3024,9.3696 L58.3504,9.7536 C58.632,8.2944 59.3232,7.5776 61.1408,7.5776 C63.2912,7.5776 63.752,8.6016 63.752,10.2656 L63.752,11.5456 C63.3936,11.52 63.0096,11.4944 62.6,11.4944 C58.888,11.4944 55.7904,12.4672 55.7904,15.9744 C55.7904,17.2544 56.3536,19.5072 59.6816,19.5072 C61.5248,19.5072 62.8816,18.9184 63.9056,17.8944 C64.0336,18.7392 64.6224,19.456 65.928,19.456 C66.568,19.456 67.2336,19.3024 67.7456,19.0464 L67.6432,17.5872 C67.3104,17.6896 67.08,17.7408 66.8496,17.7408 C66.184,17.7408 66.056,17.4336 66.056,16.7168 L66.056,10.2912 Z M63.7776,16.2048 C63.0608,16.9728 61.7552,17.6896 60.3984,17.6896 C58.6064,17.6896 58.1968,16.7168 58.1968,15.5904 C58.1968,13.3376 60.6288,13.1584 62.4464,13.1584 C62.9328,13.1584 63.4192,13.184 63.7776,13.2352 L63.7776,16.2048 Z M73.8576,5.76 C71.1952,5.76 68.9936,7.0656 68.9936,9.728 C68.9936,12.8 71.5792,13.2608 73.7296,13.696 C75.5216,14.0544 76.5968,14.3104 76.5968,15.7696 C76.5968,17.1776 75.4448,17.664 73.8576,17.664 C71.528,17.664 70.9392,16.5376 70.5808,15.1296 L68.5072,15.6928 C68.9168,18.3296 70.7344,19.5072 73.7552,19.5072 C76.9552,19.5072 78.9008,18.0224 78.9008,15.5136 C78.9008,12.5696 76.6224,12.0832 74.216,11.5712 C72.3728,11.1872 71.2976,10.8032 71.2976,9.4464 C71.2976,8.448 71.912,7.6032 73.832,7.6032 C75.752,7.6032 76.264,8.5248 76.5712,10.0352 L78.6704,9.5744 C78.2608,7.2448 76.9808,5.76 73.8576,5.76 L73.8576,5.76 Z M86.4976,19.5072 C90.9264,19.5072 92.7184,16.6912 92.7184,12.3648 C92.7184,8.448 91.0032,5.76 86.8304,5.76 C82.632,5.76 80.4304,8.4224 80.4304,12.672 C80.4304,16.5632 81.9408,19.5072 86.4976,19.5072 L86.4976,19.5072 Z M86.6256,17.6384 C84.0656,17.6384 82.8368,16.0512 82.8368,12.5696 C82.8368,9.0624 84.3984,7.68 86.728,7.68 C89.0064,7.68 90.2864,8.8832 90.2864,12.5184 C90.2864,16.256 88.904,17.6384 86.6256,17.6384 L86.6256,17.6384 Z M106.2032,10.2656 C106.2032,7.296 104.9744,5.76 102.1584,5.76 C100.3408,5.76 98.7024,6.5792 97.4224,7.6032 L97.2944,6.0416 L95.2464,6.0416 L95.2464,19.2 L97.576,19.2 L97.576,9.3952 C98.2672,8.7808 99.9056,7.808 101.416,7.808 C103.208,7.808 103.8736,8.8064 103.8736,10.624 L103.8736,19.2 L106.2032,19.2 L106.2032,10.2656 Z M113.6208,5.76 C110.9584,5.76 108.7568,7.0656 108.7568,9.728 C108.7568,12.8 111.3424,13.2608 113.4928,13.696 C115.2848,14.0544 116.36,14.3104 116.36,15.7696 C116.36,17.1776 115.208,17.664 113.6208,17.664 C111.2912,17.664 110.7024,16.5376 110.344,15.1296 L108.2704,15.6928 C108.68,18.3296 110.4976,19.5072 113.5184,19.5072 C116.7184,19.5072 118.664,18.0224 118.664,15.5136 C118.664,12.5696 116.3856,12.0832 113.9792,11.5712 C112.136,11.1872 111.0608,10.8032 111.0608,9.4464 C111.0608,8.448 111.6752,7.6032 113.5952,7.6032 C115.5152,7.6032 116.0272,8.5248 116.3344,10.0352 L118.4336,9.5744 C118.024,7.2448 116.744,5.76 113.6208,5.76 L113.6208,5.76 Z" id="Reasons" fill="#FFFFFF"></path>
            </g>
        </g>
    </g>
</svg>