<?xml version="1.0" encoding="UTF-8" standalone="no"?>
<svg width="15px" height="15px" viewBox="0 0 15 15" version="1.1" xmlns="http://www.w3.org/2000/svg" xmlns:xlink="http://www.w3.org/1999/xlink" style="background: #FFFFFF;">
    <!-- Generator: Sketch 39.1 (31720) - http://www.bohemiancoding.com/sketch -->
    <title>dots-blue-med</title>
    <desc>Created with Sketch.</desc>
    <defs></defs>
    <g id="Page-1" stroke="none" stroke-width="1" fill="none" fill-rule="evenodd">
        <g id="dots-blue-med" fill="#E9EFFB">
            <path d="M2.5,4 C3.32842712,4 4,3.32842712 4,2.5 C4,1.67157288 3.32842712,1 2.5,1 C1.67157288,1 1,1.67157288 1,2.5 C1,3.32842712 1.67157288,4 2.5,4 Z" id="Oval"></path>
            <path d="M7.5,4 C8.32842712,4 9,3.32842712 9,2.5 C9,1.67157288 8.32842712,1 7.5,1 C6.67157288,1 6,1.67157288 6,2.5 C6,3.32842712 6.67157288,4 7.5,4 Z" id="Oval"></path>
            <path d="M12.5,4 C13.3284271,4 14,3.32842712 14,2.5 C14,1.67157288 13.3284271,1 12.5,1 C11.6715729,1 11,1.67157288 11,2.5 C11,3.32842712 11.6715729,4 12.5,4 Z" id="Oval"></path>
            <path d="M2.5,9 C3.32842712,9 4,8.32842712 4,7.5 C4,6.67157288 3.32842712,6 2.5,6 C1.67157288,6 1,6.67157288 1,7.5 C1,8.32842712 1.67157288,9 2.5,9 Z" id="Oval"></path>
            <path d="M7.5,9 C8.32842712,9 9,8.32842712 9,7.5 C9,6.67157288 8.32842712,6 7.5,6 C6.67157288,6 6,6.67157288 6,7.5 C6,8.32842712 6.67157288,9 7.5,9 Z" id="Oval"></path>
            <path d="M12.5,9 C13.3284271,9 14,8.32842712 14,7.5 C14,6.67157288 13.3284271,6 12.5,6 C11.6715729,6 11,6.67157288 11,7.5 C11,8.32842712 11.6715729,9 12.5,9 Z" id="Oval"></path>
            <path d="M2.5,14 C3.32842712,14 4,13.3284271 4,12.5 C4,11.6715729 3.32842712,11 2.5,11 C1.67157288,11 1,11.6715729 1,12.5 C1,13.3284271 1.67157288,14 2.5,14 Z" id="Oval"></path>
            <path d="M7.5,14 C8.32842712,14 9,13.3284271 9,12.5 C9,11.6715729 8.32842712,11 7.5,11 C6.67157288,11 6,11.6715729 6,12.5 C6,13.3284271 6.67157288,14 7.5,14 Z" id="Oval"></path>
            <path d="M12.5,14 C13.3284271,14 14,13.3284271 14,12.5 C14,11.6715729 13.3284271,11 12.5,11 C11.6715729,11 11,11.6715729 11,12.5 C11,13.3284271 11.6715729,14 12.5,14 Z" id="Oval"></path>
        </g>
    </g>
</svg>