<?xml version="1.0" encoding="UTF-8" standalone="no"?>
<svg width="270px" height="190px" viewBox="0 0 270 190" version="1.1" xmlns="http://www.w3.org/2000/svg" xmlns:xlink="http://www.w3.org/1999/xlink">
    <!-- Generator: Sketch 39.1 (31720) - http://www.bohemiancoding.com/sketch -->
    <title>icon-arrows</title>
    <desc>Created with Sketch.</desc>
    <defs></defs>
    <g id="Page-1" stroke="none" stroke-width="1" fill="none" fill-rule="evenodd">
        <g id="icon-arrows">
            <path d="M268.385367,18.9672653 C268.364851,18.9448108 268.343731,18.922711 268.322006,18.9009865 L250.885113,1.46409332 C250.104064,0.683044732 248.837734,0.683044732 248.056686,1.46409332 C247.275637,2.2451419 247.275637,3.51147186 248.056686,4.29252044 L262.20861,18.4444444 L232.666667,18.4444444 C231.562097,18.4444444 230.666667,19.3398749 230.666667,20.4444444 C230.666667,21.5490139 231.562097,22.4444444 232.666667,22.4444444 L262.20861,22.4444444 L248.056686,36.5963684 C247.275637,37.377417 247.275637,38.643747 248.056686,39.4247956 C248.837734,40.2058442 250.104064,40.2058442 250.885113,39.4247956 L268.322006,21.9879024 C268.343731,21.9661779 268.364851,21.9440781 268.385367,21.9216236 C268.785818,21.5558961 269.037037,21.0295079 269.037037,20.4444444 C269.037037,19.859381 268.785818,19.3329927 268.385367,18.9672653 Z" id="Combined-Shape" fill="#D80000"></path>
            <path d="M191.318337,18.9672653 C191.338853,18.9448108 191.359973,18.922711 191.381697,18.9009865 L208.818591,1.46409332 C209.599639,0.683044732 210.865969,0.683044732 211.647018,1.46409332 C212.428066,2.2451419 212.428066,3.51147186 211.647018,4.29252044 L197.495094,18.4444444 L227.037037,18.4444444 C228.141607,18.4444444 229.037037,19.3398749 229.037037,20.4444444 C229.037037,21.5490139 228.141607,22.4444444 227.037037,22.4444444 L197.495094,22.4444444 L211.647018,36.5963684 C212.428066,37.377417 212.428066,38.643747 211.647018,39.4247956 C210.865969,40.2058442 209.599639,40.2058442 208.818591,39.4247956 L191.381697,21.9879024 C191.359973,21.9661779 191.338853,21.9440781 191.318337,21.9216236 C190.917885,21.5558961 190.666667,21.0295079 190.666667,20.4444444 C190.666667,19.859381 190.917885,19.3329927 191.318337,18.9672653 Z" id="Combined-Shape" fill="#D80000"></path>
            <path d="M268.385367,113.967265 C268.364851,113.944811 268.343731,113.922711 268.322006,113.900987 L250.885113,96.4640933 C250.104064,95.6830447 248.837734,95.6830447 248.056686,96.4640933 C247.275637,97.2451419 247.275637,98.5114719 248.056686,99.2925204 L262.20861,113.444444 L232.666667,113.444444 C231.562097,113.444444 230.666667,114.339875 230.666667,115.444444 C230.666667,116.549014 231.562097,117.444444 232.666667,117.444444 L262.20861,117.444444 L248.056686,131.596368 C247.275637,132.377417 247.275637,133.643747 248.056686,134.424796 C248.837734,135.205844 250.104064,135.205844 250.885113,134.424796 L268.322006,116.987902 C268.343731,116.966178 268.364851,116.944078 268.385367,116.921624 C268.785818,116.555896 269.037037,116.029508 269.037037,115.444444 C269.037037,114.859381 268.785818,114.332993 268.385367,113.967265 Z" id="Combined-Shape" fill="#0E1D30"></path>
            <path d="M191.318337,113.967265 C191.338853,113.944811 191.359973,113.922711 191.381697,113.900987 L208.818591,96.4640933 C209.599639,95.6830447 210.865969,95.6830447 211.647018,96.4640933 C212.428066,97.2451419 212.428066,98.5114719 211.647018,99.2925204 L197.495094,113.444444 L227.037037,113.444444 C228.141607,113.444444 229.037037,114.339875 229.037037,115.444444 C229.037037,116.549014 228.141607,117.444444 227.037037,117.444444 L197.495094,117.444444 L211.647018,131.596368 C212.428066,132.377417 212.428066,133.643747 211.647018,134.424796 C210.865969,135.205844 209.599639,135.205844 208.818591,134.424796 L191.381697,116.987902 C191.359973,116.966178 191.338853,116.944078 191.318337,116.921624 C190.917885,116.555896 190.666667,116.029508 190.666667,115.444444 C190.666667,114.859381 190.917885,114.332993 191.318337,113.967265 Z" id="Combined-Shape" fill="#0E1D30"></path>
            <path d="M2.75842529,46.4319403 C2.80599391,46.3719589 2.85749756,46.3140753 2.91293624,46.2586366 L47.0500722,2.12150072 C47.8311207,1.34045214 49.0974507,1.34045214 49.8784993,2.12150072 C50.6595479,2.90254931 50.6595479,4.16887926 49.8784993,4.94992785 L8.82842712,46 L91,46 C92.1045695,46 93,46.8954305 93,48 C93,49.1045695 92.1045695,50 91,50 L8.82842712,50 L49.8784993,91.0500722 C50.6595479,91.8311207 50.6595479,93.0974507 49.8784993,93.8784993 C49.0974507,94.6595479 47.8311207,94.6595479 47.0500722,93.8784993 L2.91293624,49.7413634 C2.85749756,49.6859247 2.80599391,49.6280411 2.75842529,49.5680597 C2.29636837,49.2017136 2,48.635467 2,48 C2,47.364533 2.29636837,46.7982864 2.75842529,46.4319403 Z" id="Combined-Shape" fill="#D80000"></path>
            <path d="M2.75842529,141.43194 C2.80599391,141.371959 2.85749756,141.314075 2.91293624,141.258637 L47.0500722,97.1215007 C47.8311207,96.3404521 49.0974507,96.3404521 49.8784993,97.1215007 C50.6595479,97.9025493 50.6595479,99.1688793 49.8784993,99.9499278 L8.82842712,141 L91,141 C92.1045695,141 93,141.895431 93,143 C93,144.104569 92.1045695,145 91,145 L8.82842712,145 L49.8784993,186.050072 C50.6595479,186.831121 50.6595479,188.097451 49.8784993,188.878499 C49.0974507,189.659548 47.8311207,189.659548 47.0500722,188.878499 L2.91293624,144.741363 C2.85749756,144.685925 2.80599391,144.628041 2.75842529,144.56806 C2.29636837,144.201714 2,143.635467 2,143 C2,142.364533 2.29636837,141.798286 2.75842529,141.43194 Z" id="Combined-Shape" fill="#0E1D30"></path>
            <path d="M187.241575,46.4319403 C187.194006,46.3719589 187.142502,46.3140753 187.087064,46.2586366 L142.949928,2.12150072 C142.168879,1.34045214 140.902549,1.34045214 140.121501,2.12150072 C139.340452,2.90254931 139.340452,4.16887926 140.121501,4.94992785 L181.171573,46 L99,46 C97.8954305,46 97,46.8954305 97,48 C97,49.1045695 97.8954305,50 99,50 L181.171573,50 L140.121501,91.0500722 C139.340452,91.8311207 139.340452,93.0974507 140.121501,93.8784993 C140.902549,94.6595479 142.168879,94.6595479 142.949928,93.8784993 L187.087064,49.7413634 C187.142502,49.6859247 187.194006,49.6280411 187.241575,49.5680597 C187.703632,49.2017136 188,48.635467 188,48 C188,47.364533 187.703632,46.7982864 187.241575,46.4319403 Z" id="Combined-Shape" fill="#D80000"></path>
            <path d="M187.241575,141.43194 C187.194006,141.371959 187.142502,141.314075 187.087064,141.258637 L142.949928,97.1215007 C142.168879,96.3404521 140.902549,96.3404521 140.121501,97.1215007 C139.340452,97.9025493 139.340452,99.1688793 140.121501,99.9499278 L181.171573,141 L99,141 C97.8954305,141 97,141.895431 97,143 C97,144.104569 97.8954305,145 99,145 L181.171573,145 L140.121501,186.050072 C139.340452,186.831121 139.340452,188.097451 140.121501,188.878499 C140.902549,189.659548 142.168879,189.659548 142.949928,188.878499 L187.087064,144.741363 C187.142502,144.685925 187.194006,144.628041 187.241575,144.56806 C187.703632,144.201714 188,143.635467 188,143 C188,142.364533 187.703632,141.798286 187.241575,141.43194 Z" id="Combined-Shape" fill="#0E1D30"></path>
        </g>
    </g>
</svg>