<?xml version="1.0" encoding="UTF-8" standalone="no"?>
<svg width="40px" height="34px" viewBox="0 0 40 34" version="1.1" xmlns="http://www.w3.org/2000/svg" xmlns:xlink="http://www.w3.org/1999/xlink">
    <!-- Generator: Sketch 39.1 (31720) - http://www.bohemiancoding.com/sketch -->
    <title>icon-facebook</title>
    <desc>Created with Sketch.</desc>
    <defs></defs>
    <g id="Page-1" stroke="none" stroke-width="1" fill="none" fill-rule="evenodd">
        <g id="icon-facebook" fill="#0F1E30">
            <path d="M9.37976125,4 C8.61766094,4 8,4.61766094 8,5.37976125 L8,27.6202387 C8,28.3822454 8.61766094,29.0000937 9.37976125,29.0000937 L21.1944939,29.0000937 L21.1944939,19.318722 L17.7222586,19.3187226 L17.7222586,15.5456881 L21.1944939,15.5456886 L21.1944939,12.7632169 C21.1944939,9.53421958 23.1666251,7.77593726 26.0471695,7.77593726 C27.4270244,7.77593726 28.6128885,7.87859974 28.9584376,7.92449812 L28.9584376,11.2990588 L26.9606407,11.2999955 C25.3941012,11.2999955 25.0907036,12.0443922 25.0907036,13.1367734 L25.0907036,15.5456886 L28.8269247,15.5456886 L28.3404957,19.318722 L25.0907036,19.318722 L25.0907036,29.0000937 L31.6202387,29.0000937 C32.3822454,29.0000937 33,28.3822454 33,27.6202387 L33,5.37976125 C33,4.61766094 32.3822454,4 31.6202387,4 L9.37976125,4 Z" id="Fill-1"></path>
        </g>
    </g>
</svg>