<?xml version="1.0" encoding="UTF-8" standalone="no"?>
<svg width="950px" height="300px" viewBox="0 0 950 300" version="1.1" xmlns="http://www.w3.org/2000/svg" xmlns:xlink="http://www.w3.org/1999/xlink">
    <!-- Generator: Sketch 39.1 (31720) - http://www.bohemiancoding.com/sketch -->
    <title>30reasons-sprites</title>
    <desc>Created with Sketch.</desc>
    <defs></defs>
    <g id="Sprites" stroke="none" stroke-width="1" fill="none" fill-rule="evenodd">
        <g id="30reasons-sprites">
            <g id="Group-2" transform="translate(2.000000, 0.000000)" fill="#D80000">
                <path d="M266.385367,18.9672653 C266.364851,18.9448108 266.343731,18.922711 266.322006,18.9009865 L248.885113,1.46409332 C248.104064,0.683044732 246.837734,0.683044732 246.056686,1.46409332 C245.275637,2.2451419 245.275637,3.51147186 246.056686,4.29252044 L260.20861,18.4444444 L230.666667,18.4444444 C229.562097,18.4444444 228.666667,19.3398749 228.666667,20.4444444 C228.666667,21.5490139 229.562097,22.4444444 230.666667,22.4444444 L260.20861,22.4444444 L246.056686,36.5963684 C245.275637,37.377417 245.275637,38.643747 246.056686,39.4247956 C246.837734,40.2058442 248.104064,40.2058442 248.885113,39.4247956 L266.322006,21.9879024 C266.343731,21.9661779 266.364851,21.9440781 266.385367,21.9216236 C266.785818,21.5558961 267.037037,21.0295079 267.037037,20.4444444 C267.037037,19.859381 266.785818,19.3329927 266.385367,18.9672653 Z" id="Combined-Shape"></path>
                <path d="M189.318337,18.9672653 C189.338853,18.9448108 189.359973,18.922711 189.381697,18.9009865 L206.818591,1.46409332 C207.599639,0.683044732 208.865969,0.683044732 209.647018,1.46409332 C210.428066,2.2451419 210.428066,3.51147186 209.647018,4.29252044 L195.495094,18.4444444 L225.037037,18.4444444 C226.141607,18.4444444 227.037037,19.3398749 227.037037,20.4444444 C227.037037,21.5490139 226.141607,22.4444444 225.037037,22.4444444 L195.495094,22.4444444 L209.647018,36.5963684 C210.428066,37.377417 210.428066,38.643747 209.647018,39.4247956 C208.865969,40.2058442 207.599639,40.2058442 206.818591,39.4247956 L189.381697,21.9879024 C189.359973,21.9661779 189.338853,21.9440781 189.318337,21.9216236 C188.917885,21.5558961 188.666667,21.0295079 188.666667,20.4444444 C188.666667,19.859381 188.917885,19.3329927 189.318337,18.9672653 Z" id="Combined-Shape"></path>
                <path d="M0.758425288,46.4319403 C0.805993911,46.3719589 0.857497561,46.3140753 0.912936238,46.2586366 L45.0500722,2.12150072 C45.8311207,1.34045214 47.0974507,1.34045214 47.8784993,2.12150072 C48.6595479,2.90254931 48.6595479,4.16887926 47.8784993,4.94992785 L6.82842712,46 L89,46 C90.1045695,46 91,46.8954305 91,48 C91,49.1045695 90.1045695,50 89,50 L6.82842712,50 L47.8784993,91.0500722 C48.6595479,91.8311207 48.6595479,93.0974507 47.8784993,93.8784993 C47.0974507,94.6595479 45.8311207,94.6595479 45.0500722,93.8784993 L0.912936238,49.7413634 C0.857497561,49.6859247 0.805993911,49.6280411 0.758425288,49.5680597 C0.296368375,49.2017136 0,48.635467 0,48 C0,47.364533 0.296368375,46.7982864 0.758425288,46.4319403 Z" id="Combined-Shape"></path>
                <path d="M185.241575,46.4319403 C185.194006,46.3719589 185.142502,46.3140753 185.087064,46.2586366 L140.949928,2.12150072 C140.168879,1.34045214 138.902549,1.34045214 138.121501,2.12150072 C137.340452,2.90254931 137.340452,4.16887926 138.121501,4.94992785 L179.171573,46 L97,46 C95.8954305,46 95,46.8954305 95,48 C95,49.1045695 95.8954305,50 97,50 L179.171573,50 L138.121501,91.0500722 C137.340452,91.8311207 137.340452,93.0974507 138.121501,93.8784993 C138.902549,94.6595479 140.168879,94.6595479 140.949928,93.8784993 L185.087064,49.7413634 C185.142502,49.6859247 185.194006,49.6280411 185.241575,49.5680597 C185.703632,49.2017136 186,48.635467 186,48 C186,47.364533 185.703632,46.7982864 185.241575,46.4319403 Z" id="Combined-Shape"></path>
            </g>
            <g id="Group" transform="translate(2.000000, 95.000000)" fill="#0E1D30">
                <path d="M266.385367,18.9672653 C266.364851,18.9448108 266.343731,18.922711 266.322006,18.9009865 L248.885113,1.46409332 C248.104064,0.683044732 246.837734,0.683044732 246.056686,1.46409332 C245.275637,2.2451419 245.275637,3.51147186 246.056686,4.29252044 L260.20861,18.4444444 L230.666667,18.4444444 C229.562097,18.4444444 228.666667,19.3398749 228.666667,20.4444444 C228.666667,21.5490139 229.562097,22.4444444 230.666667,22.4444444 L260.20861,22.4444444 L246.056686,36.5963684 C245.275637,37.377417 245.275637,38.643747 246.056686,39.4247956 C246.837734,40.2058442 248.104064,40.2058442 248.885113,39.4247956 L266.322006,21.9879024 C266.343731,21.9661779 266.364851,21.9440781 266.385367,21.9216236 C266.785818,21.5558961 267.037037,21.0295079 267.037037,20.4444444 C267.037037,19.859381 266.785818,19.3329927 266.385367,18.9672653 Z" id="Combined-Shape"></path>
                <path d="M189.318337,18.9672653 C189.338853,18.9448108 189.359973,18.922711 189.381697,18.9009865 L206.818591,1.46409332 C207.599639,0.683044732 208.865969,0.683044732 209.647018,1.46409332 C210.428066,2.2451419 210.428066,3.51147186 209.647018,4.29252044 L195.495094,18.4444444 L225.037037,18.4444444 C226.141607,18.4444444 227.037037,19.3398749 227.037037,20.4444444 C227.037037,21.5490139 226.141607,22.4444444 225.037037,22.4444444 L195.495094,22.4444444 L209.647018,36.5963684 C210.428066,37.377417 210.428066,38.643747 209.647018,39.4247956 C208.865969,40.2058442 207.599639,40.2058442 206.818591,39.4247956 L189.381697,21.9879024 C189.359973,21.9661779 189.338853,21.9440781 189.318337,21.9216236 C188.917885,21.5558961 188.666667,21.0295079 188.666667,20.4444444 C188.666667,19.859381 188.917885,19.3329927 189.318337,18.9672653 Z" id="Combined-Shape"></path>
                <path d="M0.758425288,46.4319403 C0.805993911,46.3719589 0.857497561,46.3140753 0.912936238,46.2586366 L45.0500722,2.12150072 C45.8311207,1.34045214 47.0974507,1.34045214 47.8784993,2.12150072 C48.6595479,2.90254931 48.6595479,4.16887926 47.8784993,4.94992785 L6.82842712,46 L89,46 C90.1045695,46 91,46.8954305 91,48 C91,49.1045695 90.1045695,50 89,50 L6.82842712,50 L47.8784993,91.0500722 C48.6595479,91.8311207 48.6595479,93.0974507 47.8784993,93.8784993 C47.0974507,94.6595479 45.8311207,94.6595479 45.0500722,93.8784993 L0.912936238,49.7413634 C0.857497561,49.6859247 0.805993911,49.6280411 0.758425288,49.5680597 C0.296368375,49.2017136 0,48.635467 0,48 C0,47.364533 0.296368375,46.7982864 0.758425288,46.4319403 Z" id="Combined-Shape"></path>
                <path d="M185.241575,46.4319403 C185.194006,46.3719589 185.142502,46.3140753 185.087064,46.2586366 L140.949928,2.12150072 C140.168879,1.34045214 138.902549,1.34045214 138.121501,2.12150072 C137.340452,2.90254931 137.340452,4.16887926 138.121501,4.94992785 L179.171573,46 L97,46 C95.8954305,46 95,46.8954305 95,48 C95,49.1045695 95.8954305,50 97,50 L179.171573,50 L138.121501,91.0500722 C137.340452,91.8311207 137.340452,93.0974507 138.121501,93.8784993 C138.902549,94.6595479 140.168879,94.6595479 140.949928,93.8784993 L185.087064,49.7413634 C185.142502,49.6859247 185.194006,49.6280411 185.241575,49.5680597 C185.703632,49.2017136 186,48.635467 186,48 C186,47.364533 185.703632,46.7982864 185.241575,46.4319403 Z" id="Combined-Shape"></path>
            </g>
            <g id="Group" transform="translate(2.000000, 190.000000)" fill="#D7E4F6">
                <path d="M266.385367,18.9672653 C266.364851,18.9448108 266.343731,18.922711 266.322006,18.9009865 L248.885113,1.46409332 C248.104064,0.683044732 246.837734,0.683044732 246.056686,1.46409332 C245.275637,2.2451419 245.275637,3.51147186 246.056686,4.29252044 L260.20861,18.4444444 L230.666667,18.4444444 C229.562097,18.4444444 228.666667,19.3398749 228.666667,20.4444444 C228.666667,21.5490139 229.562097,22.4444444 230.666667,22.4444444 L260.20861,22.4444444 L246.056686,36.5963684 C245.275637,37.377417 245.275637,38.643747 246.056686,39.4247956 C246.837734,40.2058442 248.104064,40.2058442 248.885113,39.4247956 L266.322006,21.9879024 C266.343731,21.9661779 266.364851,21.9440781 266.385367,21.9216236 C266.785818,21.5558961 267.037037,21.0295079 267.037037,20.4444444 C267.037037,19.859381 266.785818,19.3329927 266.385367,18.9672653 Z" id="Combined-Shape"></path>
                <path d="M189.318337,18.9672653 C189.338853,18.9448108 189.359973,18.922711 189.381697,18.9009865 L206.818591,1.46409332 C207.599639,0.683044732 208.865969,0.683044732 209.647018,1.46409332 C210.428066,2.2451419 210.428066,3.51147186 209.647018,4.29252044 L195.495094,18.4444444 L225.037037,18.4444444 C226.141607,18.4444444 227.037037,19.3398749 227.037037,20.4444444 C227.037037,21.5490139 226.141607,22.4444444 225.037037,22.4444444 L195.495094,22.4444444 L209.647018,36.5963684 C210.428066,37.377417 210.428066,38.643747 209.647018,39.4247956 C208.865969,40.2058442 207.599639,40.2058442 206.818591,39.4247956 L189.381697,21.9879024 C189.359973,21.9661779 189.338853,21.9440781 189.318337,21.9216236 C188.917885,21.5558961 188.666667,21.0295079 188.666667,20.4444444 C188.666667,19.859381 188.917885,19.3329927 189.318337,18.9672653 Z" id="Combined-Shape"></path>
                <path d="M0.758425288,46.4319403 C0.805993911,46.3719589 0.857497561,46.3140753 0.912936238,46.2586366 L45.0500722,2.12150072 C45.8311207,1.34045214 47.0974507,1.34045214 47.8784993,2.12150072 C48.6595479,2.90254931 48.6595479,4.16887926 47.8784993,4.94992785 L6.82842712,46 L89,46 C90.1045695,46 91,46.8954305 91,48 C91,49.1045695 90.1045695,50 89,50 L6.82842712,50 L47.8784993,91.0500722 C48.6595479,91.8311207 48.6595479,93.0974507 47.8784993,93.8784993 C47.0974507,94.6595479 45.8311207,94.6595479 45.0500722,93.8784993 L0.912936238,49.7413634 C0.857497561,49.6859247 0.805993911,49.6280411 0.758425288,49.5680597 C0.296368375,49.2017136 0,48.635467 0,48 C0,47.364533 0.296368375,46.7982864 0.758425288,46.4319403 Z" id="Combined-Shape"></path>
                <path d="M185.241575,46.4319403 C185.194006,46.3719589 185.142502,46.3140753 185.087064,46.2586366 L140.949928,2.12150072 C140.168879,1.34045214 138.902549,1.34045214 138.121501,2.12150072 C137.340452,2.90254931 137.340452,4.16887926 138.121501,4.94992785 L179.171573,46 L97,46 C95.8954305,46 95,46.8954305 95,48 C95,49.1045695 95.8954305,50 97,50 L179.171573,50 L138.121501,91.0500722 C137.340452,91.8311207 137.340452,93.0974507 138.121501,93.8784993 C138.902549,94.6595479 140.168879,94.6595479 140.949928,93.8784993 L185.087064,49.7413634 C185.142502,49.6859247 185.194006,49.6280411 185.241575,49.5680597 C185.703632,49.2017136 186,48.635467 186,48 C186,47.364533 185.703632,46.7982864 185.241575,46.4319403 Z" id="Combined-Shape"></path>
            </g>
            <g id="Group-3" transform="translate(600.000000, 0.000000)">
                <rect id="Rectangle-4" x="0" y="0" width="66" height="150"></rect>
                <path d="M54.712,25.816 C56.12,25.816 57.272,24.664 57.272,23.256 L57.272,10.968 C57.272,9.56 56.12,8.408 54.712,8.408 L8.504,8.408 C7.096,8.408 5.944,9.56 5.944,10.968 L5.944,57.048 C5.944,58.456 7.096,59.608 8.504,59.608 L20.92,59.608 C22.456,59.608 23.352,59.096 23.992,58.2 C25.656,55.896 28.6,54.104 32.44,54.104 C40.504,54.104 43.704,61.144 43.704,68.312 C43.704,75.48 40.76,82.008 32.44,82.008 C26.936,82.008 21.304,79.704 21.304,73.944 C21.304,72.536 20.152,71.384 18.744,71.384 L6.712,71.384 C5.304,71.384 4.152,72.28 4.152,73.944 C4.152,91.224 17.464,99.416 32.44,99.416 C51.128,99.416 60.984,83.8 60.984,68.312 C60.984,50.52 49.976,37.976 33.336,37.976 C30.136,37.976 27.064,39 25.4,40.152 C24.248,40.92 22.968,40.664 22.968,39 L22.968,27.096 C22.968,26.328 23.48,25.816 24.248,25.816 L54.712,25.816 Z" id="Path" stroke="#D80000" stroke-width="4"></path>
            </g>
            <g id="Group" transform="translate(336.000000, 0.000000)">
                <rect id="Rectangle-Copy" x="0" y="0" width="66" height="150"></rect>
                <path d="M26.68,79.448 C26.68,80.216 26.168,80.728 25.4,80.728 L7.48,80.728 C6.072,80.728 4.92,81.88 4.92,83.288 L4.92,95.448 C4.92,96.856 6.072,98.008 7.48,98.008 L59.96,98.008 C61.368,98.008 62.52,96.856 62.52,95.448 L62.52,83.288 C62.52,81.88 61.368,80.728 59.96,80.728 L45.752,80.728 C44.984,80.728 44.472,80.216 44.472,79.448 L44.472,10.968 C44.472,9.56 43.32,8.408 41.912,8.408 L27.704,8.408 C24.504,8.408 22.456,10.2 21.304,11.48 L6.456,27.48 C4.664,29.4 4.408,31.064 4.408,33.112 L4.408,45.4 C4.408,47.96 7.224,48.984 8.76,47.448 L24.248,32.984 C25.016,32.216 26.68,32.344 26.68,34.008 L26.68,79.448 Z" id="Path" stroke="#D80000" stroke-width="4"></path>
            </g>
            <g id="Group-4" transform="translate(270.000000, 0.000000)">
                <rect id="Rectangle" x="0" y="0" width="66" height="150"></rect>
                <path d="M4.024,35.288 C2.744,46.04 2.744,60.376 4.024,71.128 C5.816,86.488 16.824,99.416 32.568,99.416 C48.312,99.416 59.32,86.488 61.112,71.128 C62.392,60.376 62.392,46.04 61.112,35.288 C59.32,19.928 48.312,7 32.568,7 C16.824,7 5.816,19.928 4.024,35.288 L4.024,35.288 Z" id="Path" stroke="#D80000" stroke-width="4"></path>
                <path d="M32.568,24.408 C38.584,24.408 42.68,29.016 43.32,34.776 C44.6,45.912 44.6,60.504 43.32,71.64 C42.68,77.4 38.584,82.008 32.568,82.008 C26.552,82.008 22.456,77.4 21.816,71.64 C20.536,60.504 20.536,45.912 21.816,34.776 C22.456,29.016 26.552,24.408 32.568,24.408 L32.568,24.408 Z" id="Path" stroke="#D80000" stroke-width="4"></path>
            </g>
            <rect id="Rectangle-Copy-2" x="402" y="0" width="66" height="150"></rect>
            <path d="M444.888,33.624 C444.888,36.312 442.712,40.408 441.304,41.944 L408.152,77.144 C407.64,77.656 407,78.424 407,80.344 L407,95.448 C407,96.856 408.152,98.008 409.56,98.008 L459.736,98.008 C461.144,98.008 462.296,96.856 462.296,95.448 L462.296,83.288 C462.296,81.88 461.144,80.728 459.736,80.728 L431.448,80.728 C429.272,80.728 429.4,78.936 430.168,78.168 L454.232,52.696 C458.968,47.576 462.168,40.792 462.168,33.752 C462.168,18.776 450.264,7 435.16,7 C420.184,7 407.896,18.776 407.896,33.752 L407.896,35.8 C407.896,37.208 409.048,38.36 410.456,38.36 L422.616,38.36 C424.024,38.36 425.176,37.208 425.176,35.8 L425.176,33.624 C425.176,27.992 429.272,24.28 435.672,24.28 C441.432,24.28 444.888,28.504 444.888,33.624 L444.888,33.624 Z" id="Path" stroke="#D80000" stroke-width="4"></path>
            <rect id="Rectangle-Copy-3" x="468" y="0" width="66" height="150"></rect>
            <path d="M511.68,71.384 C511.68,78.04 507.2,82.008 500.544,82.008 C493.76,82.008 489.408,78.04 489.408,71.384 L489.408,70.104 C489.408,68.696 488.256,67.544 486.848,67.544 L474.56,67.544 C473.152,67.544 472,68.696 472,70.104 L472,71.384 C472,87.128 484.8,99.416 500.544,99.416 C516.288,99.416 529.088,87.128 529.088,71.384 C529.088,64.344 526.016,57.048 521.024,52.952 C520.256,52.312 520.256,51.416 521.024,50.648 C524.864,46.424 527.808,40.28 527.808,33.88 C527.808,18.904 515.648,7 500.544,7 C485.568,7 473.152,18.904 473.152,33.88 L473.152,35.8 C473.152,37.208 474.304,38.36 475.712,38.36 L488,38.36 C489.408,38.36 490.56,37.208 490.56,35.8 L490.56,33.88 C490.56,28.12 494.784,24.408 500.544,24.408 C506.432,24.408 510.528,28.12 510.528,33.88 C510.528,39.768 506.432,43.608 500.544,43.608 L499.008,43.608 C497.6,43.608 496.448,44.76 496.448,46.168 L496.448,58.2 C496.448,59.608 497.6,60.76 499.008,60.76 L500.544,60.76 C507.2,60.76 511.68,64.728 511.68,71.384 L511.68,71.384 Z" id="Path" stroke="#D80000" stroke-width="4"></path>
            <g id="Group-5" transform="translate(534.000000, 0.000000)">
                <rect id="Rectangle-Copy-4" x="0" y="0" width="66" height="150"></rect>
                <path d="M54.84,65.88 C54.072,65.88 53.56,65.368 53.56,64.6 L53.56,10.968 C53.56,9.56 52.408,8.408 51,8.408 L37.304,8.408 C35.896,8.408 35.384,8.792 34.616,10.2 L5.048,61.272 C4.024,62.936 3,64.344 3,66.136 L3,79.448 C3,80.856 4.152,82.008 5.56,82.008 L35.64,82.008 C36.408,82.008 36.92,82.52 36.92,83.288 L36.92,95.448 C36.92,96.856 38.072,98.008 39.48,98.008 L51,98.008 C52.408,98.008 53.56,96.856 53.56,95.448 L53.56,83.288 C53.56,82.52 54.072,82.008 54.84,82.008 L59.576,82.008 C60.984,82.008 62.136,80.856 62.136,79.448 L62.136,68.44 C62.136,67.032 60.984,65.88 59.576,65.88 L54.84,65.88 Z" id="Path" stroke="#D80000" stroke-width="4"></path>
                <path d="M35.512,37.08 C35.896,36.44 36.92,36.568 36.92,37.464 L36.92,64.6 C36.92,65.368 36.408,65.88 35.64,65.88 L21.56,65.88 C20.664,65.88 20.28,65.24 20.792,64.344 L35.512,37.08 Z" id="Path" stroke="#D80000" stroke-width="4"></path>
            </g>
            <g id="Group" transform="translate(666.000000, 0.000000)">
                <rect id="Rectangle-Copy-6" x="0" y="0" width="66" height="150"></rect>
                <path d="M33.208,55.128 C39.864,55.128 44.088,59.992 44.6,66.648 C44.728,68.568 44.728,69.848 44.6,71.64 C44.088,78.296 39.864,82.648 33.208,82.648 C26.552,82.648 22.328,78.296 21.816,71.64 C21.688,69.848 21.688,68.568 21.816,66.648 C22.328,59.992 26.552,55.128 33.208,55.128 L33.208,55.128 Z" id="Path" stroke="#D80000" stroke-width="4"></path>
                <path d="M60.344,31.96 C60.344,16.856 46.648,7 32.568,7 C17.464,7 6.456,19.416 4.664,34.776 C3.384,45.528 3.384,60.888 4.664,71.64 C6.456,87 17.464,99.416 33.208,99.416 C48.952,99.416 61.752,87.128 61.752,71.384 L61.752,66.904 C61.752,51.16 48.952,38.36 33.208,38.36 C29.368,38.36 25.528,39.512 23.864,40.408 C22.456,41.176 20.92,40.536 20.92,38.744 C20.92,29.784 24.632,23.768 32.568,23.768 C39.096,23.768 42.296,27.736 43.32,31.96 C43.704,33.496 44.856,34.52 46.904,34.52 L57.784,34.52 C59.192,34.52 60.344,33.368 60.344,31.96 L60.344,31.96 Z" id="Path" stroke="#D80000" stroke-width="4"></path>
            </g>
            <g id="Group-2" transform="translate(732.000000, 0.000000)">
                <rect id="Rectangle-Copy-7" x="0" y="0" width="66" height="150"></rect>
                <path d="M11.448,94.936 C10.936,96.088 11.448,98.008 13.752,98.008 L27.448,98.008 C28.6,98.008 29.368,97.24 29.88,96.088 L59.064,28.888 C59.576,27.736 59.704,27.096 59.704,26.328 L59.704,10.968 C59.704,9.56 58.552,8.408 57.144,8.408 L7.992,8.408 C6.584,8.408 5.432,9.56 5.432,10.968 L5.432,23.128 C5.432,24.536 6.584,25.688 7.992,25.688 L40.632,25.688 C41.4,25.688 41.784,26.328 41.528,26.968 L11.448,94.936 Z" id="Path" stroke="#D80000" stroke-width="4"></path>
            </g>
            <g id="Group-3" transform="translate(798.000000, 0.000000)">
                <rect id="Rectangle-Copy-8" x="0" y="0" width="66" height="150"></rect>
                <path d="M32.568,82.392 C25.144,82.392 20.28,77.912 20.28,71.384 C20.28,64.856 25.144,59.864 32.568,59.864 C39.992,59.864 44.856,64.856 44.856,71.384 C44.856,77.912 39.992,82.392 32.568,82.392 L32.568,82.392 Z" id="Path" stroke="#D80000" stroke-width="4"></path>
                <path d="M32.568,44.248 C26.296,44.248 21.56,39.64 21.56,33.88 C21.56,28.248 26.296,24.024 32.568,24.024 C38.968,24.024 43.576,28.248 43.576,33.88 C43.576,39.64 38.968,44.248 32.568,44.248 L32.568,44.248 Z" id="Path" stroke="#D80000" stroke-width="4"></path>
                <path d="M32.568,7 C16.952,7 4.536,18.904 4.536,33.88 C4.536,40.152 6.456,45.784 10.04,50.392 C10.936,51.544 11.064,52.184 10.168,53.208 C5.944,58.2 3.384,64.344 3.384,71.384 C3.384,87.128 16.184,99.416 32.568,99.416 C48.952,99.416 61.752,87.128 61.752,71.384 C61.752,64.344 59.448,57.816 54.84,53.208 C53.816,52.184 53.944,51.416 54.84,50.392 C58.552,45.912 60.472,40.152 60.472,33.88 C60.472,18.904 48.312,7 32.568,7 L32.568,7 Z" id="Path" stroke="#D80000" stroke-width="4"></path>
            </g>
            <g id="Group-4" transform="translate(864.000000, 0.000000)">
                <rect id="Rectangle-Copy-9" x="0" y="0" width="66" height="150"></rect>
                <path d="M32.056,51.16 C26.168,51.16 22.2,46.552 21.56,40.536 C21.304,37.848 21.304,36.312 21.56,33.496 C22.072,27.608 26.168,23.384 32.056,23.384 C37.944,23.384 42.04,27.608 42.552,33.496 C42.808,36.312 42.808,37.848 42.552,40.536 C41.912,46.552 37.944,51.16 32.056,51.16 L32.056,51.16 Z" id="Path" stroke="#D80000" stroke-width="4"></path>
                <path d="M3.64,74.2 C3.64,88.536 15.8,99.416 31.8,99.416 C47.544,99.416 58.552,87 60.344,71.64 C61.624,60.888 61.624,45.528 60.344,34.776 C58.552,19.416 47.544,7 31.416,7 C16.312,7 4.792,18.904 4.024,33.88 C3.896,36.568 3.896,37.848 4.024,40.152 C4.92,55.384 16.312,67.544 31.288,67.544 C35.128,67.544 39.992,66.264 41.784,65.624 C43.192,65.112 44.856,65.496 44.856,67.288 C44.856,78.808 39.352,82.648 31.416,82.648 C24.504,82.648 21.176,78.68 20.152,74.2 C19.768,72.664 18.616,71.64 16.568,71.64 L6.2,71.64 C4.792,71.64 3.64,72.792 3.64,74.2 L3.64,74.2 Z" id="Path" stroke="#D80000" stroke-width="4"></path>
            </g>
            <g id="facebook" transform="translate(550.000000, 150.000000)">
                <rect id="Rectangle-3" x="0" y="0" width="28" height="34"></rect>
                <path d="M3.3245708,5 C2.59295451,5 2,5.59295451 2,6.3245708 L2,27.6754292 C2,28.4069556 2.59295451,29.0000899 3.3245708,29.0000899 L14.6667141,29.0000899 L14.6667141,19.7059732 L11.3333683,19.7059737 L11.3333683,16.0838606 L14.6667141,16.083861 L14.6667141,13.4126882 C14.6667141,10.3128508 16.5599601,8.62489977 19.3252827,8.62489977 C20.6499434,8.62489977 21.7883729,8.72345575 22.1201001,8.76751819 L22.1201001,12.0070965 L20.2022151,12.0079957 C18.6983372,12.0079957 18.4070755,12.7226165 18.4070755,13.7713025 L18.4070755,16.083861 L21.9938477,16.083861 L21.5268758,19.7059732 L18.4070755,19.7059732 L18.4070755,29.0000899 L24.6754292,29.0000899 C25.4069556,29.0000899 26,28.4069556 26,27.6754292 L26,6.3245708 C26,5.59295451 25.4069556,5 24.6754292,5 L3.3245708,5 Z" id="Fill-1" fill="#0F1E30"></path>
            </g>
            <g id="twitter" transform="translate(520.000000, 150.000000)">
                <rect id="Rectangle-3" x="0" y="0" width="28" height="34"></rect>
                <path d="M8.8057887,28.7558228 C19.3725337,28.7558228 25.1506698,20.0018172 25.1506698,12.4109435 C25.1506698,12.1622998 25.1456054,11.914778 25.1344524,11.6683752 C26.2561425,10.8574879 27.2311126,9.84555775 28,8.69362577 C26.9707099,9.15115037 25.8630198,9.45915407 24.7010078,9.59803592 C25.8870998,8.88682761 26.797668,7.7617775 27.2271926,6.42056367 C26.1172616,7.07857012 24.8880496,7.55681566 23.5793167,7.81497749 C22.5309866,6.69832644 21.0385719,6 19.3859962,6 C16.2135649,6 13.6408991,8.57266579 13.6408991,11.7439762 C13.6408991,12.1947798 13.6912991,12.6332654 13.789861,13.0538281 C9.01525496,12.8135863 4.78161165,10.5276442 1.94854498,7.05169012 C1.45517944,7.90065841 1.17069762,8.88682761 1.17069762,9.93907773 C1.17069762,11.932138 2.18486681,13.6916755 3.72712153,14.7209656 C2.78463326,14.6918456 1.89926405,14.4331219 1.12533575,14.0024783 C1.12449011,14.0265808 1.12449011,14.0500792 1.12449011,14.0758392 C1.12449011,16.8579459 3.10467038,19.1808489 5.73333616,19.7072535 C5.25061156,19.8388553 4.74268602,19.9094153 4.21852143,19.9094153 C3.84891775,19.9094153 3.48883406,19.8730379 3.13883131,19.8058153 C3.87019774,22.0883974 5.99093799,23.7493731 8.50536379,23.7958549 C6.53918352,25.3369887 4.06227958,26.2548389 1.37033382,26.2548389 C0.907208274,26.2548389 0.449684607,26.2284963 0,26.175317 C2.5424258,27.8049345 5.56141526,28.7558228 8.80608561,28.7558228" id="path3611" fill="#0F1E30"></path>
            </g>
            <g id="Group-8" transform="translate(270.000000, 150.000000)">
                <rect id="Rectangle-5" x="0" y="0" width="165" height="100"></rect>
                <g id="Group-7" transform="translate(3.000000, 3.000000)">
                    <g id="Group-6" transform="translate(0.000000, 1.000000)" stroke="#FFFFFF" stroke-width="4">
                        <path d="M39.68,64.384 C39.68,71.04 35.2,75.008 28.544,75.008 C21.76,75.008 17.408,71.04 17.408,64.384 L17.408,63.104 C17.408,61.696 16.256,60.544 14.848,60.544 L2.56,60.544 C1.152,60.544 0,61.696 0,63.104 L0,64.384 C0,80.128 12.8,92.416 28.544,92.416 C44.288,92.416 57.088,80.128 57.088,64.384 C57.088,57.344 54.016,50.048 49.024,45.952 C48.256,45.312 48.256,44.416 49.024,43.648 C52.864,39.424 55.808,33.28 55.808,26.88 C55.808,11.904 43.648,0 28.544,0 C13.568,0 1.152,11.904 1.152,26.88 L1.152,28.8 C1.152,30.208 2.304,31.36 3.712,31.36 L16,31.36 C17.408,31.36 18.56,30.208 18.56,28.8 L18.56,26.88 C18.56,21.12 22.784,17.408 28.544,17.408 C34.432,17.408 38.528,21.12 38.528,26.88 C38.528,32.768 34.432,36.608 28.544,36.608 L27.008,36.608 C25.6,36.608 24.448,37.76 24.448,39.168 L24.448,51.2 C24.448,52.608 25.6,53.76 27.008,53.76 L28.544,53.76 C35.2,53.76 39.68,57.728 39.68,64.384 L39.68,64.384 Z" id="Path"></path>
                        <path d="M65.3239878,28.288 C64.0439878,39.04 64.0439878,53.376 65.3239878,64.128 C67.1159878,79.488 78.1239878,92.416 93.8679878,92.416 C109.611988,92.416 120.619988,79.488 122.411988,64.128 C123.691988,53.376 123.691988,39.04 122.411988,28.288 C120.619988,12.928 109.611988,0 93.8679878,0 C78.1239878,0 67.1159878,12.928 65.3239878,28.288 L65.3239878,28.288 Z" id="Path"></path>
                        <path d="M93.8679878,17.408 C99.8839878,17.408 103.979988,22.016 104.619988,27.776 C105.899988,38.912 105.899988,53.504 104.619988,64.64 C103.979988,70.4 99.8839878,75.008 93.8679878,75.008 C87.8519878,75.008 83.7559878,70.4 83.1159878,64.64 C81.8359878,53.504 81.8359878,38.912 83.1159878,27.776 C83.7559878,22.016 87.8519878,17.408 93.8679878,17.408 L93.8679878,17.408 Z" id="Path"></path>
                    </g>
                    <path d="M147.9,20.75 C152.1,19.3 154.9,16.1 154.9,10.65 C154.9,5.7 152.2,0.8 143.2,0.8 L130.8,0.8 L130.8,37 L135.35,37 L135.35,21.95 L143.5,21.95 L151.8,37 L156.8,37 L147.9,20.75 Z M135.35,18.1 L135.35,4.7 L141.65,4.7 C146.85,4.7 150.15,6 150.15,10.9 C150.15,16.5 146.85,18.1 142.1,18.1 L135.35,18.1 Z" id="R" fill="#FFFFFF"></path>
                </g>
            </g>
            <g id="Group-8-Copy" transform="translate(435.000000, 150.000000)">
                <rect id="Rectangle-5" x="0" y="0" width="85" height="50"></rect>
                <g id="Group-7" transform="translate(2.500000, 1.500000)" stroke="#FFFFFF">
                    <g id="Group-6" transform="translate(0.000000, 0.500000)" stroke-width="3">
                        <path d="M19.84,32.192 C19.84,35.52 17.6,37.504 14.272,37.504 C10.88,37.504 8.704,35.52 8.704,32.192 L8.704,31.552 C8.704,30.848 8.128,30.272 7.424,30.272 L1.28,30.272 C0.576,30.272 0,30.848 0,31.552 L0,32.192 C0,40.064 6.4,46.208 14.272,46.208 C22.144,46.208 28.544,40.064 28.544,32.192 C28.544,28.672 27.008,25.024 24.512,22.976 C24.128,22.656 24.128,22.208 24.512,21.824 C26.432,19.712 27.904,16.64 27.904,13.44 C27.904,5.952 21.824,0 14.272,0 C6.784,0 0.576,5.952 0.576,13.44 L0.576,14.4 C0.576,15.104 1.152,15.68 1.856,15.68 L8,15.68 C8.704,15.68 9.28,15.104 9.28,14.4 L9.28,13.44 C9.28,10.56 11.392,8.704 14.272,8.704 C17.216,8.704 19.264,10.56 19.264,13.44 C19.264,16.384 17.216,18.304 14.272,18.304 L13.504,18.304 C12.8,18.304 12.224,18.88 12.224,19.584 L12.224,25.6 C12.224,26.304 12.8,26.88 13.504,26.88 L14.272,26.88 C17.6,26.88 19.84,28.864 19.84,32.192 L19.84,32.192 Z" id="Path"></path>
                        <path d="M33.6619939,14.144 C33.0219939,19.52 33.0219939,26.688 33.6619939,32.064 C34.5579939,39.744 40.0619939,46.208 47.9339939,46.208 C55.8059939,46.208 61.3099939,39.744 62.2059939,32.064 C62.8459939,26.688 62.8459939,19.52 62.2059939,14.144 C61.3099939,6.464 55.8059939,0 47.9339939,0 C40.0619939,0 34.5579939,6.464 33.6619939,14.144 L33.6619939,14.144 Z" id="Path"></path>
                        <path d="M47.9339939,8.704 C50.9419939,8.704 52.9899939,11.008 53.3099939,13.888 C53.9499939,19.456 53.9499939,26.752 53.3099939,32.32 C52.9899939,35.2 50.9419939,37.504 47.9339939,37.504 C44.9259939,37.504 42.8779939,35.2 42.5579939,32.32 C41.9179939,26.752 41.9179939,19.456 42.5579939,13.888 C42.8779939,11.008 44.9259939,8.704 47.9339939,8.704 L47.9339939,8.704 Z" id="Path"></path>
                    </g>
                    <path d="M75.95,10.375 C78.05,9.65 79.45,8.05 79.45,5.325 C79.45,2.85 78.1,0.4 73.6,0.4 L67.4,0.4 L67.4,18.5 L69.675,18.5 L69.675,10.975 L73.75,10.975 L77.9,18.5 L80.4,18.5 L75.95,10.375 Z M69.675,9.05 L69.675,2.35 L72.825,2.35 C75.425,2.35 77.075,3 77.075,5.45 C77.075,8.25 75.425,9.05 73.05,9.05 L69.675,9.05 Z" id="R" fill="#FFFFFF"></path>
                </g>
            </g>
        </g>
    </g>
</svg>