<?xml version="1.0" encoding="UTF-8" standalone="no"?>
<svg width="155px" height="30px" viewBox="0 0 155 30" version="1.1" xmlns="http://www.w3.org/2000/svg" xmlns:xlink="http://www.w3.org/1999/xlink">
    <!-- Generator: Sketch 39.1 (31720) - http://www.bohemiancoding.com/sketch -->
    <title>30reasons-logo-small</title>
    <desc>Created with Sketch.</desc>
    <defs></defs>
    <g id="Page-1" stroke="none" stroke-width="1" fill="none" fill-rule="evenodd">
        <g id="30reasons-logo-small">
            <g id="30-R" transform="translate(1.000000, 2.000000)">
                <path d="M10.616,17.344 C10.616,19.008 9.496,20 7.832,20 C6.136,20 5.048,19.008 5.048,17.344 L5.048,17.024 C5.048,16.672 4.76,16.384 4.408,16.384 L1.336,16.384 C0.984,16.384 0.696,16.672 0.696,17.024 L0.696,17.344 C0.696,21.28 3.896,24.352 7.832,24.352 C11.768,24.352 14.968,21.28 14.968,17.344 C14.968,15.584 14.2,13.76 12.952,12.736 C12.76,12.576 12.76,12.352 12.952,12.16 C13.912,11.104 14.648,9.568 14.648,7.968 C14.648,4.224 11.608,1.248 7.832,1.248 C4.088,1.248 0.984,4.224 0.984,7.968 L0.984,8.448 C0.984,8.8 1.272,9.088 1.624,9.088 L4.696,9.088 C5.048,9.088 5.336,8.8 5.336,8.448 L5.336,7.968 C5.336,6.528 6.392,5.6 7.832,5.6 C9.304,5.6 10.328,6.528 10.328,7.968 C10.328,9.44 9.304,10.4 7.832,10.4 L7.448,10.4 C7.096,10.4 6.808,10.688 6.808,11.04 L6.808,14.048 C6.808,14.4 7.096,14.688 7.448,14.688 L7.832,14.688 C9.496,14.688 10.616,15.68 10.616,17.344 L10.616,17.344 Z M17.264,8.32 C16.944,11.008 16.944,14.592 17.264,17.28 C17.712,21.12 20.464,24.352 24.4,24.352 C28.336,24.352 31.088,21.12 31.536,17.28 C31.856,14.592 31.856,11.008 31.536,8.32 C31.088,4.48 28.336,1.248 24.4,1.248 C20.464,1.248 17.712,4.48 17.264,8.32 L17.264,8.32 Z M24.4,5.6 C25.904,5.6 26.928,6.752 27.088,8.192 C27.408,10.976 27.408,14.624 27.088,17.408 C26.928,18.848 25.904,20 24.4,20 C22.896,20 21.872,18.848 21.712,17.408 C21.392,14.624 21.392,10.976 21.712,8.192 C21.872,6.752 22.896,5.6 24.4,5.6 L24.4,5.6 Z" id="30" stroke="#D80000" stroke-width="1.5"></path>
                <path d="M49.016,13.6 C51.704,12.672 53.496,10.624 53.496,7.136 C53.496,3.968 51.768,0.832 46.008,0.832 L38.072,0.832 L38.072,24 L40.984,24 L40.984,14.368 L46.2,14.368 L51.512,24 L54.712,24 L49.016,13.6 Z M40.984,11.904 L40.984,3.328 L45.016,3.328 C48.344,3.328 50.456,4.16 50.456,7.296 C50.456,10.88 48.344,11.904 45.304,11.904 L40.984,11.904 Z M62.96,24.384 C66.256,24.384 68.816,22.816 69.488,19.616 L66.928,19.04 C66.48,20.896 65.392,21.952 63.056,21.952 C60.432,21.952 58.576,20.64 58.448,16.448 L69.52,16.448 C69.616,15.68 69.648,14.944 69.648,14.304 C69.648,10.24 67.728,7.2 63.12,7.2 C58.896,7.2 55.376,9.792 55.376,15.808 C55.376,20.32 57.136,24.384 62.96,24.384 L62.96,24.384 Z M58.48,14.144 C58.64,10.88 60.752,9.568 62.928,9.568 C65.52,9.568 66.64,11.2 66.64,14.144 L58.48,14.144 Z M84.392,12.864 C84.392,8.768 82.568,7.2 78.504,7.2 C74.696,7.2 72.712,8.64 72.2,11.712 L74.76,12.192 C75.112,10.368 75.976,9.472 78.248,9.472 C80.936,9.472 81.512,10.752 81.512,12.832 L81.512,14.432 C81.064,14.4 80.584,14.368 80.072,14.368 C75.432,14.368 71.56,15.584 71.56,19.968 C71.56,21.568 72.264,24.384 76.424,24.384 C78.728,24.384 80.424,23.648 81.704,22.368 C81.864,23.424 82.6,24.32 84.232,24.32 C85.032,24.32 85.864,24.128 86.504,23.808 L86.376,21.984 C85.96,22.112 85.672,22.176 85.384,22.176 C84.552,22.176 84.392,21.792 84.392,20.896 L84.392,12.864 Z M81.544,20.256 C80.648,21.216 79.016,22.112 77.32,22.112 C75.08,22.112 74.568,20.896 74.568,19.488 C74.568,16.672 77.608,16.448 79.88,16.448 C80.488,16.448 81.096,16.48 81.544,16.544 L81.544,20.256 Z M94.144,7.2 C90.816,7.2 88.064,8.832 88.064,12.16 C88.064,16 91.296,16.576 93.984,17.12 C96.224,17.568 97.568,17.888 97.568,19.712 C97.568,21.472 96.128,22.08 94.144,22.08 C91.232,22.08 90.496,20.672 90.048,18.912 L87.456,19.616 C87.968,22.912 90.24,24.384 94.016,24.384 C98.016,24.384 100.448,22.528 100.448,19.392 C100.448,15.712 97.6,15.104 94.592,14.464 C92.288,13.984 90.944,13.504 90.944,11.808 C90.944,10.56 91.712,9.504 94.112,9.504 C96.512,9.504 97.152,10.656 97.536,12.544 L100.16,11.968 C99.648,9.056 98.048,7.2 94.144,7.2 L94.144,7.2 Z M109.944,24.384 C115.48,24.384 117.72,20.864 117.72,15.456 C117.72,10.56 115.576,7.2 110.36,7.2 C105.112,7.2 102.36,10.528 102.36,15.84 C102.36,20.704 104.248,24.384 109.944,24.384 L109.944,24.384 Z M110.104,22.048 C106.904,22.048 105.368,20.064 105.368,15.712 C105.368,11.328 107.32,9.6 110.232,9.6 C113.08,9.6 114.68,11.104 114.68,15.648 C114.68,20.32 112.952,22.048 110.104,22.048 L110.104,22.048 Z M134.576,12.832 C134.576,9.12 133.04,7.2 129.52,7.2 C127.248,7.2 125.2,8.224 123.6,9.504 L123.44,7.552 L120.88,7.552 L120.88,24 L123.792,24 L123.792,11.744 C124.656,10.976 126.704,9.76 128.592,9.76 C130.832,9.76 131.664,11.008 131.664,13.28 L131.664,24 L134.576,24 L134.576,12.832 Z M143.848,7.2 C140.52,7.2 137.768,8.832 137.768,12.16 C137.768,16 141,16.576 143.688,17.12 C145.928,17.568 147.272,17.888 147.272,19.712 C147.272,21.472 145.832,22.08 143.848,22.08 C140.936,22.08 140.2,20.672 139.752,18.912 L137.16,19.616 C137.672,22.912 139.944,24.384 143.72,24.384 C147.72,24.384 150.152,22.528 150.152,19.392 C150.152,15.712 147.304,15.104 144.296,14.464 C141.992,13.984 140.648,13.504 140.648,11.808 C140.648,10.56 141.416,9.504 143.816,9.504 C146.216,9.504 146.856,10.656 147.24,12.544 L149.864,11.968 C149.352,9.056 147.752,7.2 143.848,7.2 L143.848,7.2 Z" id="Reasons" fill="#FFFFFF"></path>
            </g>
        </g>
    </g>
</svg>