<?xml version="1.0" encoding="UTF-8" standalone="no"?>
<svg width="165px" height="100px" viewBox="0 0 165 100" version="1.1" xmlns="http://www.w3.org/2000/svg" xmlns:xlink="http://www.w3.org/1999/xlink">
    <!-- Generator: Sketch 39.1 (31720) - http://www.bohemiancoding.com/sketch -->
    <title>30reasons-logo</title>
    <desc>Created with Sketch.</desc>
    <defs></defs>
    <g id="Page-1" stroke="none" stroke-width="1" fill="none" fill-rule="evenodd">
        <g id="30reasons-logo" fill="#FFFFFF">
            <path d="M31.828,77 C26.0526268,77 22.692,73.8337896 22.692,68.376 L22.692,67.096 C22.692,64.5834305 20.6445695,62.536 18.132,62.536 L5.844,62.536 C3.3314305,62.536 1.284,64.5834305 1.284,67.096 L1.284,68.376 C1.284,85.1384651 14.8905389,98.408 31.828,98.408 C48.7654611,98.408 62.372,85.1384651 62.372,68.376 C62.372,60.6604086 58.9851456,52.835607 53.5766332,48.3978533 C53.7575696,48.5485581 53.7575696,49.0188575 53.7222136,49.0542136 C58.2629907,44.062724 61.092,37.3996626 61.092,30.872 C61.092,14.8133359 48.059091,1.992 31.828,1.992 C15.6600756,1.992 2.436,14.8759064 2.436,30.872 L2.436,32.792 C2.436,35.3045695 4.4834305,37.352 6.996,37.352 L19.284,37.352 C21.7965695,37.352 23.844,35.3045695 23.844,32.792 L23.844,30.872 C23.844,26.3551604 27.0286874,23.4 31.828,23.4 C36.7056167,23.4 39.812,26.3087044 39.812,30.872 C39.812,35.5849878 36.6832138,38.6 31.828,38.6 L30.292,38.6 C27.7794305,38.6 25.732,40.6474305 25.732,43.16 L25.732,55.192 C25.732,57.7045695 27.7794305,59.752 30.292,59.752 L31.828,59.752 C37.5253789,59.752 40.964,62.9651377 40.964,68.376 C40.964,73.7868623 37.5253789,77 31.828,77 Z M31.828,55.752 L30.292,55.752 C29.9885695,55.752 29.732,55.4954305 29.732,55.192 L29.732,43.16 C29.732,42.8565695 29.9885695,42.6 30.292,42.6 L31.828,42.6 C38.8598805,42.6 43.812,37.8279576 43.812,30.872 C43.812,24.0386411 38.8581115,19.4 31.828,19.4 C24.8836233,19.4 19.844,24.0764072 19.844,30.872 L19.844,32.792 C19.844,33.0954305 19.5874305,33.352 19.284,33.352 L6.996,33.352 C6.6925695,33.352 6.436,33.0954305 6.436,32.792 L6.436,30.872 C6.436,17.108711 17.8462215,5.992 31.828,5.992 C45.8644734,5.992 57.092,17.0372616 57.092,30.872 C57.092,36.3544426 54.6622755,42.0770832 50.8281199,46.2946544 C49.3224304,47.7971425 49.3224304,50.0594419 51.0276312,51.4804426 C55.4815369,55.1350043 58.372,61.8129707 58.372,68.376 C58.372,82.9065627 46.5784627,94.408 31.828,94.408 C17.0775373,94.408 5.284,82.9065627 5.284,68.376 L5.284,67.096 C5.284,66.7925695 5.5405695,66.536 5.844,66.536 L18.132,66.536 C18.4354305,66.536 18.692,66.7925695 18.692,67.096 L18.692,68.376 C18.692,76.097979 23.8950223,81 31.828,81 C39.676165,81 44.964,76.0589082 44.964,68.376 C44.964,60.6930918 39.676165,55.752 31.828,55.752 Z M66.5700235,68.3564258 C68.5687933,85.4887863 80.9664238,98.408 97.1,98.408 C113.233576,98.408 125.631207,85.4887863 127.630526,68.3517614 C128.928674,57.4473631 128.928674,42.9526369 127.629977,32.0435742 C125.631207,14.9112137 113.233576,1.992 97.1,1.992 C80.9664238,1.992 68.5687933,14.9112137 66.5694737,32.0482386 C65.2713255,42.9526369 65.2713255,57.4473631 66.5700235,68.3564258 Z M97.1,5.992 C111.056362,5.992 121.8793,17.2702723 123.657474,32.5117614 C124.919326,43.1113631 124.919326,57.2886369 123.658023,67.8835742 C121.8793,83.1297277 111.056362,94.408 97.1,94.408 C83.1436383,94.408 72.3207,83.1297277 70.5425263,67.8882386 C69.2806745,57.2886369 69.2806745,43.1113631 70.5419765,32.5164258 C72.3207,17.2702723 83.1436383,5.992 97.1,5.992 Z M105.864233,31.9888631 C107.127639,42.9806267 107.127639,57.4193733 105.865082,68.4036187 C105.301706,73.4738748 101.805719,77 97.1,77 C92.3942813,77 88.8982939,73.4738748 88.3357675,68.4111369 C87.0723608,57.4193733 87.0723608,42.9806267 88.3349177,31.9963813 C88.8982939,26.9261252 92.3942813,23.4 97.1,23.4 C101.805719,23.4 105.301706,26.9261252 105.864233,31.9888631 Z M84.3602325,31.5471369 C83.0636392,42.8273733 83.0636392,57.5726267 84.3610823,68.8603813 C85.1373566,75.8469796 90.2463341,81 97.1,81 C103.953666,81 109.062643,75.8469796 109.839767,68.8528631 C111.136361,57.5726267 111.136361,42.8273733 109.838918,31.5396187 C109.062643,24.5530204 103.953666,19.4 97.1,19.4 C90.2463341,19.4 85.1373566,24.5530204 84.3602325,31.5471369 Z" id="30"></path>
            <path d="M150.9,23.75 C155.1,22.3 157.9,19.1 157.9,13.65 C157.9,8.7 155.2,3.8 146.2,3.8 L133.8,3.8 L133.8,40 L138.35,40 L138.35,24.95 L146.5,24.95 L154.8,40 L159.8,40 L150.9,23.75 Z M138.35,21.1 L138.35,7.7 L144.65,7.7 C149.85,7.7 153.15,9 153.15,13.9 C153.15,19.5 149.85,21.1 145.1,21.1 L138.35,21.1 Z" id="R"></path>
        </g>
    </g>
</svg>