<?xml version="1.0" encoding="UTF-8" standalone="no"?>
<svg width="16px" height="16px" viewBox="0 0 16 16" version="1.1" xmlns="http://www.w3.org/2000/svg" xmlns:xlink="http://www.w3.org/1999/xlink" style="background: #FFFFFF;">
    <!-- Generator: Sketch 39.1 (31720) - http://www.bohemiancoding.com/sketch -->
    <title>dots-blue-sm</title>
    <desc>Created with Sketch.</desc>
    <defs></defs>
    <g id="Page-1" stroke="none" stroke-width="1" fill="none" fill-rule="evenodd">
        <g id="dots-blue-sm" fill="#D7E4F6">
            <path d="M2,3 C2.55228475,3 3,2.55228475 3,2 C3,1.44771525 2.55228475,1 2,1 C1.44771525,1 1,1.44771525 1,2 C1,2.55228475 1.44771525,3 2,3 Z M6,3 C6.55228475,3 7,2.55228475 7,2 C7,1.44771525 6.55228475,1 6,1 C5.44771525,1 5,1.44771525 5,2 C5,2.55228475 5.44771525,3 6,3 Z M10,3 C10.5522847,3 11,2.55228475 11,2 C11,1.44771525 10.5522847,1 10,1 C9.44771525,1 9,1.44771525 9,2 C9,2.55228475 9.44771525,3 10,3 Z M14,3 C14.5522847,3 15,2.55228475 15,2 C15,1.44771525 14.5522847,1 14,1 C13.4477153,1 13,1.44771525 13,2 C13,2.55228475 13.4477153,3 14,3 Z M2,7 C2.55228475,7 3,6.55228475 3,6 C3,5.44771525 2.55228475,5 2,5 C1.44771525,5 1,5.44771525 1,6 C1,6.55228475 1.44771525,7 2,7 Z M6,7 C6.55228475,7 7,6.55228475 7,6 C7,5.44771525 6.55228475,5 6,5 C5.44771525,5 5,5.44771525 5,6 C5,6.55228475 5.44771525,7 6,7 Z M10,7 C10.5522847,7 11,6.55228475 11,6 C11,5.44771525 10.5522847,5 10,5 C9.44771525,5 9,5.44771525 9,6 C9,6.55228475 9.44771525,7 10,7 Z M14,7 C14.5522847,7 15,6.55228475 15,6 C15,5.44771525 14.5522847,5 14,5 C13.4477153,5 13,5.44771525 13,6 C13,6.55228475 13.4477153,7 14,7 Z M2,11 C2.55228475,11 3,10.5522847 3,10 C3,9.44771525 2.55228475,9 2,9 C1.44771525,9 1,9.44771525 1,10 C1,10.5522847 1.44771525,11 2,11 Z M6,11 C6.55228475,11 7,10.5522847 7,10 C7,9.44771525 6.55228475,9 6,9 C5.44771525,9 5,9.44771525 5,10 C5,10.5522847 5.44771525,11 6,11 Z M10,11 C10.5522847,11 11,10.5522847 11,10 C11,9.44771525 10.5522847,9 10,9 C9.44771525,9 9,9.44771525 9,10 C9,10.5522847 9.44771525,11 10,11 Z M14,11 C14.5522847,11 15,10.5522847 15,10 C15,9.44771525 14.5522847,9 14,9 C13.4477153,9 13,9.44771525 13,10 C13,10.5522847 13.4477153,11 14,11 Z M2,15 C2.55228475,15 3,14.5522847 3,14 C3,13.4477153 2.55228475,13 2,13 C1.44771525,13 1,13.4477153 1,14 C1,14.5522847 1.44771525,15 2,15 Z M6,15 C6.55228475,15 7,14.5522847 7,14 C7,13.4477153 6.55228475,13 6,13 C5.44771525,13 5,13.4477153 5,14 C5,14.5522847 5.44771525,15 6,15 Z M10,15 C10.5522847,15 11,14.5522847 11,14 C11,13.4477153 10.5522847,13 10,13 C9.44771525,13 9,13.4477153 9,14 C9,14.5522847 9.44771525,15 10,15 Z M14,15 C14.5522847,15 15,14.5522847 15,14 C15,13.4477153 14.5522847,13 14,13 C13.4477153,13 13,13.4477153 13,14 C13,14.5522847 13.4477153,15 14,15 Z" id="Combined-Shape"></path>
        </g>
    </g>
</svg>