<?xml version="1.0" encoding="UTF-8" standalone="no"?>
<svg width="40px" height="36px" viewBox="0 0 40 36" version="1.1" xmlns="http://www.w3.org/2000/svg" xmlns:xlink="http://www.w3.org/1999/xlink">
    <!-- Generator: Sketch 39.1 (31720) - http://www.bohemiancoding.com/sketch -->
    <title>dots-staggered</title>
    <desc>Created with Sketch.</desc>
    <defs></defs>
    <g id="Page-1" stroke="none" stroke-width="1" fill="none" fill-rule="evenodd" fill-opacity="0.2">
        <g id="dots-staggered" fill="#0F1E30">
            <circle id="Oval" cx="4" cy="4" r="2"></circle>
            <circle id="Oval" cx="12" cy="4" r="2"></circle>
            <circle id="Oval" cx="20" cy="4" r="2"></circle>
            <circle id="Oval" cx="28" cy="4" r="2"></circle>
            <circle id="Oval" cx="36" cy="4" r="2"></circle>
            <circle id="Oval" cx="8" cy="10" r="2"></circle>
            <circle id="Oval" cx="16" cy="10" r="2"></circle>
            <circle id="Oval" cx="24" cy="10" r="2"></circle>
            <circle id="Oval" cx="32" cy="10" r="2"></circle>
            <circle id="Oval" cx="40" cy="10" r="2"></circle>
            <path d="M0,8 C1.1045695,8 2,8.8954305 2,10 C2,11.1045695 1.1045695,12 0,12 L0,8 Z" id="Combined-Shape"></path>
            <circle id="Oval" cx="4" cy="16" r="2"></circle>
            <circle id="Oval" cx="12" cy="16" r="2"></circle>
            <circle id="Oval" cx="20" cy="16" r="2"></circle>
            <circle id="Oval" cx="28" cy="16" r="2"></circle>
            <circle id="Oval" cx="36" cy="16" r="2"></circle>
            <circle id="Oval" cx="8" cy="22" r="2"></circle>
            <circle id="Oval" cx="16" cy="22" r="2"></circle>
            <circle id="Oval" cx="24" cy="22" r="2"></circle>
            <circle id="Oval" cx="32" cy="22" r="2"></circle>
            <circle id="Oval" cx="40" cy="22" r="2"></circle>
            <path d="M0,20 C1.1045695,20 2,20.8954305 2,22 C2,23.1045695 1.1045695,24 0,24 L0,20 Z" id="Combined-Shape"></path>
            <circle id="Oval" cx="4" cy="28" r="2"></circle>
            <circle id="Oval" cx="12" cy="28" r="2"></circle>
            <circle id="Oval" cx="20" cy="28" r="2"></circle>
            <circle id="Oval" cx="28" cy="28" r="2"></circle>
            <circle id="Oval" cx="36" cy="28" r="2"></circle>
            <circle id="Oval" cx="8" cy="34" r="2"></circle>
            <circle id="Oval" cx="16" cy="34" r="2"></circle>
            <circle id="Oval" cx="24" cy="34" r="2"></circle>
            <circle id="Oval" cx="32" cy="34" r="2"></circle>
            <circle id="Oval" cx="40" cy="34" r="2"></circle>
            <path d="M0,32 C1.1045695,32 2,32.8954305 2,34 C2,35.1045695 1.1045695,36 0,36 L0,32 Z" id="Combined-Shape"></path>
        </g>
    </g>
</svg>