<?xml version="1.0" encoding="UTF-8" standalone="no"?>
<svg width="40px" height="34px" viewBox="0 0 40 34" version="1.1" xmlns="http://www.w3.org/2000/svg" xmlns:xlink="http://www.w3.org/1999/xlink">
    <!-- Generator: Sketch 39.1 (31720) - http://www.bohemiancoding.com/sketch -->
    <title>icon-twitter</title>
    <desc>Created with Sketch.</desc>
    <defs></defs>
    <g id="Page-1" stroke="none" stroke-width="1" fill="none" fill-rule="evenodd">
        <g id="icon-twitter" fill="#0F1E30">
            <path d="M14.2872462,29 C25.4317292,29 31.5257856,19.7673681 31.5257856,11.7614626 C31.5257856,11.4992243 31.5204442,11.2381692 31.5086814,10.9782943 C32.6917001,10.1230716 33.7199768,9.05581406 34.5309032,7.84090006 C33.4453365,8.32343988 32.2770833,8.64828371 31.0515382,8.79475894 C32.3024799,8.04466523 33.2628336,6.85810288 33.7158425,5.44355804 C32.5452258,6.13754106 31.2488066,6.64193473 29.8685186,6.91421159 C28.7628709,5.73650751 27.1888582,5 25.4459278,5 C22.1000434,5 19.3867168,7.71332659 19.3867168,11.0580287 C19.3867168,11.5334801 19.4398725,11.9959399 19.5438232,12.439497 C14.5081651,12.1861199 10.0430468,9.77519365 7.05508189,6.1091914 C6.53474154,7.00457712 6.23470564,8.04466523 6.23470564,9.15444725 C6.23470564,11.2564783 7.30432465,13.1122187 8.93090232,14.1977854 C7.93688341,14.1670733 7.00310652,13.8942038 6.18686361,13.4400147 C6.18597173,13.465435 6.18597173,13.4902182 6.18597173,13.5173866 C6.18597173,16.4516053 8.27441859,18.9015133 11.046807,19.4566991 C10.5376893,19.5954963 10.0019929,19.6699142 9.44916957,19.6699142 C9.05935776,19.6699142 8.67958646,19.6315478 8.31044727,19.5606499 C9.08180125,21.9680324 11.3184932,23.7198221 13.9703955,23.7688453 C11.8967141,25.3942408 9.28438518,26.3622745 6.44525698,26.3622745 C5.95680999,26.3622745 5.47427116,26.3344917 5,26.2784048 C7.68143322,27.9971218 10.8654863,29 14.2875593,29" id="path3611"></path>
        </g>
    </g>
</svg>