<?xml version="1.0" encoding="UTF-8" standalone="no"?>
<svg width="40px" height="40px" viewBox="0 0 40 40" version="1.1" xmlns="http://www.w3.org/2000/svg" xmlns:xlink="http://www.w3.org/1999/xlink">
    <!-- Generator: Sketch 39.1 (31720) - http://www.bohemiancoding.com/sketch -->
    <title>icon-facebook</title>
    <desc>Created with Sketch.</desc>
    <defs></defs>
    <g id="Page-1" stroke="none" stroke-width="1" fill="none" fill-rule="evenodd">
        <g id="icon-facebook" fill="#0F1E30">
            <path d="M9.37976125,7 C8.61766094,7 8,7.61766094 8,8.37976125 L8,30.6202387 C8,31.3822454 8.61766094,32.0000937 9.37976125,32.0000937 L21.1944939,32.0000937 L21.1944939,22.318722 L17.7222586,22.3187226 L17.7222586,18.5456881 L21.1944939,18.5456886 L21.1944939,15.7632169 C21.1944939,12.5342196 23.1666251,10.7759373 26.0471695,10.7759373 C27.4270244,10.7759373 28.6128885,10.8785997 28.9584376,10.9244981 L28.9584376,14.2990588 L26.9606407,14.2999955 C25.3941012,14.2999955 25.0907036,15.0443922 25.0907036,16.1367734 L25.0907036,18.5456886 L28.8269247,18.5456886 L28.3404957,22.318722 L25.0907036,22.318722 L25.0907036,32.0000937 L31.6202387,32.0000937 C32.3822454,32.0000937 33,31.3822454 33,30.6202387 L33,8.37976125 C33,7.61766094 32.3822454,7 31.6202387,7 L9.37976125,7 Z" id="Fill-1"></path>
        </g>
    </g>
</svg>