<?xml version="1.0" encoding="UTF-8" standalone="no"?>
<svg width="40px" height="40px" viewBox="0 0 40 40" version="1.1" xmlns="http://www.w3.org/2000/svg" xmlns:xlink="http://www.w3.org/1999/xlink">
    <!-- Generator: Sketch 39.1 (31720) - http://www.bohemiancoding.com/sketch -->
    <title>icon-twitter</title>
    <desc>Created with Sketch.</desc>
    <defs></defs>
    <g id="Page-1" stroke="none" stroke-width="1" fill="none" fill-rule="evenodd">
        <g id="icon-twitter" fill="#0F1E30">
            <path d="M14.2872462,32 C25.4317292,32 31.5257856,22.7673681 31.5257856,14.7614626 C31.5257856,14.4992243 31.5204442,14.2381692 31.5086814,13.9782943 C32.6917001,13.1230716 33.7199768,12.0558141 34.5309032,10.8409001 C33.4453365,11.3234399 32.2770833,11.6482837 31.0515382,11.7947589 C32.3024799,11.0446652 33.2628336,9.85810288 33.7158425,8.44355804 C32.5452258,9.13754106 31.2488066,9.64193473 29.8685186,9.91421159 C28.7628709,8.73650751 27.1888582,8 25.4459278,8 C22.1000434,8 19.3867168,10.7133266 19.3867168,14.0580287 C19.3867168,14.5334801 19.4398725,14.9959399 19.5438232,15.439497 C14.5081651,15.1861199 10.0430468,12.7751936 7.05508189,9.1091914 C6.53474154,10.0045771 6.23470564,11.0446652 6.23470564,12.1544473 C6.23470564,14.2564783 7.30432465,16.1122187 8.93090232,17.1977854 C7.93688341,17.1670733 7.00310652,16.8942038 6.18686361,16.4400147 C6.18597173,16.465435 6.18597173,16.4902182 6.18597173,16.5173866 C6.18597173,19.4516053 8.27441859,21.9015133 11.046807,22.4566991 C10.5376893,22.5954963 10.0019929,22.6699142 9.44916957,22.6699142 C9.05935776,22.6699142 8.67958646,22.6315478 8.31044727,22.5606499 C9.08180125,24.9680324 11.3184932,26.7198221 13.9703955,26.7688453 C11.8967141,28.3942408 9.28438518,29.3622745 6.44525698,29.3622745 C5.95680999,29.3622745 5.47427116,29.3344917 5,29.2784048 C7.68143322,30.9971218 10.8654863,32 14.2875593,32" id="path3611"></path>
        </g>
    </g>
</svg>